<svg version="1.1" id="Layer_1" xmlns="http://www.w3.org/2000/svg" xmlns:xlink="http://www.w3.org/1999/xlink" x="0px" y="0px"
	 width="100%" viewBox="0 0 1890 1314" enable-background="new 0 0 1890 1314" xml:space="preserve">
<path fill="#FFFFFF" opacity="1.000000" stroke="none" 
	d="
M1891.000000,404.000000 
	C1891.000000,707.999939 1891.000000,1011.499817 1891.000000,1314.999756 
	C1261.000244,1314.999878 631.000549,1314.999878 1.000626,1315.000000 
	C1.000417,877.000427 1.000417,439.000824 1.000209,1.000920 
	C630.999390,1.000613 1260.998779,1.000613 1890.999023,1.000307 
	C1891.000000,135.166672 1891.000000,269.333344 1891.000000,404.000000 
M860.500000,10.000204 
	C620.849548,10.000232 381.199097,9.999894 141.548645,10.001199 
	C127.262138,10.001277 121.001740,16.173048 121.001678,30.268240 
	C121.000008,448.074097 120.999992,865.879944 121.001564,1283.685791 
	C121.001617,1297.823730 127.236969,1303.999146 141.502716,1303.999146 
	C398.485809,1304.000366 655.468933,1304.000488 912.452026,1303.999268 
	C926.909973,1303.999268 932.999207,1297.843018 932.999329,1283.231079 
	C933.000427,1155.906128 933.000000,1028.581177 933.000000,901.256226 
	C933.000000,611.108643 933.000183,320.961060 932.999390,30.813480 
	C932.999390,15.984891 926.959839,10.002270 911.996704,10.000667 
	C895.164490,9.998863 878.332214,10.000221 860.500000,10.000204 
M9.000230,458.500000 
	C9.000245,733.632385 8.999777,1008.764832 9.001667,1283.897217 
	C9.001762,1297.696167 15.346126,1303.996094 29.229717,1303.998779 
	C50.393749,1304.003052 71.577179,1303.450684 92.714867,1304.196899 
	C106.361137,1304.678589 114.219086,1295.994019 114.193008,1282.946411 
	C113.890663,1131.632568 113.999802,980.317810 113.999786,829.003296 
	C113.999771,562.703125 114.000221,296.402954 113.998169,30.102762 
	C113.998062,16.303106 107.653854,10.003963 93.771156,10.001355 
	C72.607124,9.997380 51.423946,10.546160 30.285908,9.804891 
	C16.601494,9.325006 8.778801,18.026857 8.807071,31.053499 
	C9.115556,173.201813 9.000235,315.351013 9.000230,458.500000 
M939.999878,877.500000 
	C939.999878,1012.821350 940.100525,1148.142944 939.822571,1283.463745 
	C939.798462,1295.204468 946.497375,1304.152954 960.789001,1304.134155 
	C1121.941528,1303.922241 1283.094604,1303.923462 1444.247192,1304.132935 
	C1458.439697,1304.151367 1465.177734,1295.266235 1465.171997,1283.427856 
	C1464.966187,865.797180 1464.966675,448.166321 1465.171509,30.535603 
	C1465.177246,18.804728 1458.504517,9.846347 1444.210571,9.865168 
	C1283.057983,10.077345 1121.904907,10.075758 960.752380,9.867043 
	C946.559692,9.848662 939.817261,18.728426 939.826599,30.572750 
	C940.049561,312.548370 939.999878,594.524231 939.999878,877.500000 
M1471.000000,336.500000 
	C1471.000000,652.470825 1470.999756,968.441650 1471.000610,1284.412476 
	C1471.000732,1297.169922 1477.585693,1303.979980 1490.237427,1303.982910 
	C1613.059326,1304.011230 1735.881348,1304.010376 1858.703247,1303.984253 
	C1871.387817,1303.981567 1877.999268,1297.194824 1877.999268,1284.471313 
	C1878.000122,866.176880 1878.000122,447.882477 1877.999268,29.588066 
	C1877.999268,16.833921 1871.410400,10.019808 1858.762451,10.016889 
	C1735.940552,9.988533 1613.118652,9.989074 1490.296753,10.015979 
	C1477.608643,10.018759 1471.000854,16.804960 1471.000732,29.528454 
	C1470.999268,131.518967 1471.000000,233.509491 1471.000000,336.500000 
z"/>
<path fill="#75F94E" opacity="1.000000" stroke="none" 
	d="
M861.000000,10.000204 
	C878.332214,10.000221 895.164490,9.998863 911.996704,10.000667 
	C926.959839,10.002270 932.999390,15.984891 932.999390,30.813480 
	C933.000183,320.961060 933.000000,611.108643 933.000000,901.256226 
	C933.000000,1028.581177 933.000427,1155.906128 932.999329,1283.231079 
	C932.999207,1297.843018 926.909973,1303.999268 912.452026,1303.999268 
	C655.468933,1304.000488 398.485809,1304.000366 141.502716,1303.999146 
	C127.236969,1303.999146 121.001617,1297.823730 121.001564,1283.685791 
	C120.999992,865.879944 121.000008,448.074097 121.001678,30.268240 
	C121.001740,16.173048 127.262138,10.001277 141.548645,10.001199 
	C381.199097,9.999894 620.849548,10.000232 861.000000,10.000204 
M531.314026,656.773926 
	C531.205322,655.497009 531.096619,654.220154 530.992188,652.993530 
	C521.937073,652.388000 521.080322,653.355347 523.200012,661.385071 
	C523.320740,661.842590 523.601379,662.452881 523.419006,662.765259 
	C521.621460,665.845093 524.187256,666.604919 525.941223,666.395386 
	C527.730042,666.181824 529.990845,664.946899 530.868591,663.463196 
	C531.762878,661.951355 531.224609,659.592102 531.314026,656.773926 
M473.144287,652.693787 
	C471.239929,652.831116 469.335541,652.968445 467.715454,653.085266 
	C467.715454,657.668152 467.715454,661.975281 467.715454,666.018860 
	C469.019379,664.936340 470.092224,663.929626 471.280945,663.086426 
	C472.987366,661.876099 476.108521,660.912415 476.232941,659.614136 
	C476.438660,657.467834 474.734802,655.138550 473.144287,652.693787 
M484.255005,652.683167 
	C482.611511,653.123474 480.968018,653.563843 479.324524,654.004150 
	C479.436829,654.338989 479.549103,654.673767 479.661407,655.008606 
	C481.380798,655.110352 483.100189,655.212097 483.950439,655.262390 
	C482.154999,657.278320 480.581482,659.045044 479.007935,660.811768 
	C481.545929,661.752808 484.083923,662.693909 486.621918,663.635010 
	C487.149597,663.046082 487.677246,662.457214 488.204926,661.868286 
	C487.117279,658.868164 486.029633,655.867981 484.255005,652.683167 
M539.048157,652.797363 
	C535.744873,652.255249 533.569519,653.898010 533.585571,656.957947 
	C533.595886,658.910095 534.839172,661.516113 536.387878,662.582214 
	C537.541504,663.376221 540.070435,662.172241 541.986816,661.858032 
	C541.897034,661.500732 541.807251,661.143433 541.717468,660.786194 
	C539.873596,660.664246 538.029785,660.542358 536.185974,660.420410 
	C536.228149,659.952637 536.270325,659.484802 536.312500,659.016968 
	C538.343872,658.774109 540.375183,658.531250 543.633362,658.141663 
	C541.918091,655.869629 540.822754,654.418762 539.048157,652.797363 
M519.278809,660.338562 
	C519.253845,659.016602 519.617310,657.514038 519.107422,656.417664 
	C518.442749,654.988403 517.279175,653.198181 515.971863,652.827576 
	C514.665222,652.457153 512.916626,653.645691 511.361786,654.150818 
	C511.507965,654.549622 511.654144,654.948486 511.800323,655.347290 
	C513.452454,655.347290 515.104553,655.347290 516.657898,655.347290 
	C514.547668,657.066406 512.669006,658.466187 511.035553,660.109802 
	C510.852203,660.294312 512.143494,662.690002 512.603638,662.642151 
	C514.850098,662.408752 517.046448,661.693970 519.278809,660.338562 
M561.119507,662.952393 
	C565.998779,661.420593 561.850525,658.043335 562.478333,655.615906 
	C562.674561,654.857178 561.065674,652.765076 560.462402,652.834778 
	C558.890991,653.016357 557.418945,654.057556 555.907227,654.755859 
	C556.512268,655.928406 556.893066,657.329407 557.787231,658.207581 
	C558.633667,659.038818 560.018799,659.321594 561.167053,659.845642 
	C561.010498,660.254822 560.853943,660.663940 560.697388,661.073120 
	C559.084534,660.835510 557.471619,660.597900 555.858765,660.360291 
	C555.727478,660.811218 555.596130,661.262146 555.464844,661.713013 
	C557.093445,662.162109 558.722107,662.611145 561.119507,662.952393 
M507.921417,660.558716 
	C504.170746,657.849548 506.973328,655.429138 507.978638,652.510864 
	C506.477295,653.550537 504.975983,654.590210 502.975861,655.975281 
	C502.975861,654.305969 503.051727,653.186218 502.954407,652.081787 
	C502.857666,650.984009 502.586823,649.901489 502.392303,648.812317 
	C502.111633,648.864258 501.830963,648.916199 501.550293,648.968140 
	C501.550293,653.564209 501.550293,658.160278 501.550293,662.756348 
	C501.807526,662.770813 502.064728,662.785217 502.321960,662.799683 
	C502.769989,661.633118 503.218018,660.466614 503.826935,658.881226 
	C505.369354,660.529053 506.493683,661.730164 507.617981,662.931335 
	C507.865753,662.339172 508.113525,661.746948 507.921417,660.558716 
M580.506042,652.882812 
	C579.674011,653.180969 578.142395,653.434204 578.119812,653.784424 
	C577.927795,656.769043 578.009888,659.771362 578.009888,662.768372 
	C578.538574,662.787842 579.067261,662.807312 579.595947,662.826782 
	C579.720886,661.000549 579.597351,659.106995 580.066345,657.373840 
	C580.337341,656.372437 581.564148,655.629578 582.360779,654.770325 
	C582.972107,655.613586 583.896851,656.379456 584.128052,657.316528 
	C584.575134,659.128601 584.631348,661.037109 584.849609,662.905701 
	C587.549622,655.126404 586.656311,653.113586 580.506042,652.882812 
M575.098083,656.228394 
	C573.242432,655.071777 571.472412,653.296509 569.494568,653.022766 
	C568.523438,652.888428 566.492676,655.383179 566.129578,656.961426 
	C565.439453,659.961853 566.495422,662.733398 570.150574,663.011963 
	C574.421448,663.337463 575.467163,660.590393 575.098083,656.228394 
M489.731079,659.817688 
	C492.748291,664.195618 495.457581,664.355957 497.418427,660.631531 
	C495.792694,660.480591 493.839111,660.724854 492.406982,659.974304 
	C491.758087,659.634216 491.723785,656.246826 492.133636,656.086182 
	C493.897125,655.394897 495.928955,655.388062 497.863037,655.131897 
	C496.442047,653.698364 493.857330,652.324463 493.037750,653.022644 
	C491.359283,654.452393 490.628265,656.994507 489.731079,659.817688 
M549.316711,665.132263 
	C550.385010,664.928589 552.370667,664.772095 552.383911,664.514099 
	C552.582764,660.647949 552.521545,656.768372 552.521545,652.891968 
	C552.189087,652.897949 551.856628,652.903992 551.524170,652.910034 
	C550.936340,656.793091 550.348511,660.676086 549.316711,665.132263 
z"/>
<path fill="#9DF08D" opacity="1.000000" stroke="none" 
	d="
M9.000231,458.000000 
	C9.000235,315.351013 9.115556,173.201813 8.807071,31.053499 
	C8.778801,18.026857 16.601494,9.325006 30.285908,9.804891 
	C51.423946,10.546160 72.607124,9.997380 93.771156,10.001355 
	C107.653854,10.003963 113.998062,16.303106 113.998169,30.102762 
	C114.000221,296.402954 113.999771,562.703125 113.999786,829.003296 
	C113.999802,980.317810 113.890663,1131.632568 114.193008,1282.946411 
	C114.219086,1295.994019 106.361137,1304.678589 92.714867,1304.196899 
	C71.577179,1303.450684 50.393749,1304.003052 29.229717,1303.998779 
	C15.346126,1303.996094 9.001762,1297.696167 9.001667,1283.897217 
	C8.999777,1008.764832 9.000245,733.632385 9.000231,458.000000 
M74.093414,658.169006 
	C74.769325,654.958862 73.422119,652.690552 70.244316,652.869446 
	C68.647781,652.959290 66.042305,654.957275 65.894745,656.310669 
	C65.673141,658.343140 66.676239,661.184998 68.188004,662.492676 
	C69.194260,663.363037 71.993896,662.160095 73.990860,661.885132 
	C73.874275,661.505798 73.757683,661.126526 73.641098,660.747192 
	C71.797264,660.650757 69.953430,660.554260 68.109589,660.457764 
	C68.137970,659.942810 68.166351,659.427917 68.194733,658.912964 
	C69.955421,658.790100 71.716118,658.667236 74.093414,658.169006 
M51.743378,658.577026 
	C52.359203,655.350586 52.975025,652.124146 53.596569,648.867737 
	C47.773262,649.505127 46.367451,656.510376 51.097309,663.515930 
	C51.368011,661.791687 51.554981,660.600830 51.743378,658.577026 
M60.949768,655.516479 
	C60.949768,657.960571 60.949768,660.404663 60.949768,662.848755 
	C61.428162,662.817749 61.906555,662.786743 62.384949,662.755676 
	C62.384949,658.216492 62.384949,653.677368 62.384949,649.138184 
	C61.906548,649.122925 61.428150,649.107605 60.949749,649.092346 
	C60.949749,650.923584 60.949749,652.754883 60.949768,655.516479 
z"/>
<path fill="#4880C8" opacity="1.000000" stroke="none" 
	d="
M939.999878,877.000000 
	C939.999878,594.524231 940.049561,312.548370 939.826599,30.572750 
	C939.817261,18.728426 946.559692,9.848662 960.752380,9.867043 
	C1121.904907,10.075758 1283.057983,10.077345 1444.210571,9.865168 
	C1458.504517,9.846347 1465.177246,18.804728 1465.171509,30.535603 
	C1464.966675,448.166321 1464.966187,865.797180 1465.171997,1283.427856 
	C1465.177734,1295.266235 1458.439697,1304.151367 1444.247192,1304.132935 
	C1283.094604,1303.923462 1121.941528,1303.922241 960.789001,1304.134155 
	C946.497375,1304.152954 939.798462,1295.204468 939.822571,1283.463745 
	C940.100525,1148.142944 939.999878,1012.821350 939.999878,877.000000 
M943.000000,1176.500000 
	C943.000000,1212.163208 943.304810,1247.830566 942.829712,1283.487427 
	C942.669739,1295.492432 950.070801,1301.125977 960.572693,1301.115234 
	C1121.890503,1300.949829 1283.208496,1300.953125 1444.526367,1301.111450 
	C1454.698120,1301.121338 1462.162598,1295.735596 1462.156982,1283.390625 
	C1461.968018,865.763916 1461.969116,448.137085 1462.155396,30.510344 
	C1462.160767,18.516994 1454.928223,12.874541 1444.427490,12.885312 
	C1283.109619,13.050795 1121.791748,13.047771 960.473877,12.888991 
	C950.302856,12.878981 942.836548,18.266523 942.842773,30.609276 
	C943.035095,412.239441 943.000000,793.869751 943.000000,1176.500000 
z"/>
<path fill="#4880C8" opacity="1.000000" stroke="none" 
	d="
M1471.000000,336.000000 
	C1471.000000,233.509491 1470.999268,131.518967 1471.000732,29.528454 
	C1471.000854,16.804960 1477.608643,10.018759 1490.296753,10.015979 
	C1613.118652,9.989074 1735.940552,9.988533 1858.762451,10.016889 
	C1871.410400,10.019808 1877.999268,16.833921 1877.999268,29.588066 
	C1878.000122,447.882477 1878.000122,866.176880 1877.999268,1284.471313 
	C1877.999268,1297.194824 1871.387817,1303.981567 1858.703247,1303.984253 
	C1735.881348,1304.010376 1613.059326,1304.011230 1490.237427,1303.982910 
	C1477.585693,1303.979980 1471.000732,1297.169922 1471.000610,1284.412476 
	C1470.999756,968.441650 1471.000000,652.470825 1471.000000,336.000000 
M1474.000000,976.500000 
	C1474.000000,1078.823242 1474.118286,1181.146729 1473.839600,1283.469116 
	C1473.807373,1295.325562 1480.794434,1301.125854 1491.548584,1301.110474 
	C1613.536377,1300.936401 1735.524780,1300.938965 1857.512573,1301.107788 
	C1868.056641,1301.122437 1875.158936,1295.486938 1875.153564,1283.408081 
	C1874.969360,865.782288 1874.969971,448.156372 1875.152710,30.530504 
	C1875.157837,18.666960 1868.194336,12.874576 1857.451172,12.889940 
	C1735.463257,13.064393 1613.474976,13.061810 1491.487061,12.892538 
	C1480.949097,12.877915 1473.838013,18.509426 1473.845459,30.592302 
	C1474.040771,345.561432 1474.000000,660.530762 1474.000000,976.500000 
z"/>
<path fill="#232D20" opacity="1.000000" stroke="none" 
	d="
M531.313843,657.188965 
	C531.224609,659.592102 531.762878,661.951355 530.868591,663.463196 
	C529.990845,664.946899 527.730042,666.181824 525.941223,666.395386 
	C524.187256,666.604919 521.621460,665.845093 523.419006,662.765259 
	C523.601379,662.452881 523.320740,661.842590 523.200012,661.385071 
	C521.080322,653.355347 521.937073,652.388000 530.992188,652.993530 
	C531.096619,654.220154 531.205322,655.497009 531.313843,657.188965 
M524.004395,658.289856 
	C525.223938,658.982056 526.443481,659.674255 527.663025,660.366455 
	C528.145935,659.224365 529.031311,658.064331 528.981384,656.945984 
	C528.943176,656.088562 527.724792,655.283752 527.031311,654.455566 
	C526.005188,655.480225 524.979126,656.504883 524.004395,658.289856 
M525.643738,664.284302 
	C526.754333,663.987671 527.864929,663.690979 528.975586,663.394348 
	C528.782349,662.927063 528.589111,662.459778 528.395874,661.992493 
	C527.285889,662.564941 526.175903,663.137451 525.643738,664.284302 
z"/>
<path fill="#263323" opacity="1.000000" stroke="none" 
	d="
M473.489929,652.790039 
	C474.734802,655.138550 476.438660,657.467834 476.232941,659.614136 
	C476.108521,660.912415 472.987366,661.876099 471.280945,663.086426 
	C470.092224,663.929626 469.019379,664.936340 467.715454,666.018860 
	C467.715454,661.975281 467.715454,657.668152 467.715454,653.085266 
	C469.335541,652.968445 471.239929,652.831116 473.489929,652.790039 
M472.418640,661.113159 
	C475.325043,659.867859 475.432220,657.680298 473.797913,655.554260 
	C473.333405,654.949890 470.708160,654.970703 470.255280,655.581177 
	C468.687042,657.695312 468.619873,659.929077 472.418640,661.113159 
z"/>
<path fill="#22331D" opacity="1.000000" stroke="none" 
	d="
M484.598480,652.775513 
	C486.029633,655.867981 487.117279,658.868164 488.204926,661.868286 
	C487.677246,662.457214 487.149597,663.046082 486.621918,663.635010 
	C484.083923,662.693909 481.545929,661.752808 479.007935,660.811768 
	C480.581482,659.045044 482.154999,657.278320 483.950439,655.262390 
	C483.100189,655.212097 481.380798,655.110352 479.661407,655.008606 
	C479.549103,654.673767 479.436829,654.338989 479.324524,654.004150 
	C480.968018,653.563843 482.611511,653.123474 484.598480,652.775513 
z"/>
<path fill="#22331D" opacity="1.000000" stroke="none" 
	d="
M539.387817,652.882629 
	C540.822754,654.418762 541.918091,655.869629 543.633362,658.141663 
	C540.375183,658.531250 538.343872,658.774109 536.312500,659.016968 
	C536.270325,659.484802 536.228149,659.952637 536.185974,660.420410 
	C538.029785,660.542358 539.873596,660.664246 541.717468,660.786194 
	C541.807251,661.143433 541.897034,661.500732 541.986816,661.858032 
	C540.070435,662.172241 537.541504,663.376221 536.387878,662.582214 
	C534.839172,661.516113 533.595886,658.910095 533.585571,656.957947 
	C533.569519,653.898010 535.744873,652.255249 539.387817,652.882629 
z"/>
<path fill="#22331D" opacity="1.000000" stroke="none" 
	d="
M519.269653,660.744019 
	C517.046448,661.693970 514.850098,662.408752 512.603638,662.642151 
	C512.143494,662.690002 510.852203,660.294312 511.035553,660.109802 
	C512.669006,658.466187 514.547668,657.066406 516.657898,655.347290 
	C515.104553,655.347290 513.452454,655.347290 511.800323,655.347290 
	C511.654144,654.948486 511.507965,654.549622 511.361786,654.150818 
	C512.916626,653.645691 514.665222,652.457153 515.971863,652.827576 
	C517.279175,653.198181 518.442749,654.988403 519.107422,656.417664 
	C519.617310,657.514038 519.253845,659.016602 519.269653,660.744019 
z"/>
<path fill="#263323" opacity="1.000000" stroke="none" 
	d="
M560.735107,663.006287 
	C558.722107,662.611145 557.093445,662.162109 555.464844,661.713013 
	C555.596130,661.262146 555.727478,660.811218 555.858765,660.360291 
	C557.471619,660.597900 559.084534,660.835510 560.697388,661.073120 
	C560.853943,660.663940 561.010498,660.254822 561.167053,659.845642 
	C560.018799,659.321594 558.633667,659.038818 557.787231,658.207581 
	C556.893066,657.329407 556.512268,655.928406 555.907227,654.755859 
	C557.418945,654.057556 558.890991,653.016357 560.462402,652.834778 
	C561.065674,652.765076 562.674561,654.857178 562.478333,655.615906 
	C561.850525,658.043335 565.998779,661.420593 560.735107,663.006287 
M559.806091,654.606567 
	C559.353149,655.055298 558.900269,655.503967 558.447327,655.952698 
	C559.275696,656.203430 560.104004,656.454163 560.932373,656.704895 
	C560.824585,656.106873 560.716736,655.508850 559.806091,654.606567 
z"/>
<path fill="#22331D" opacity="1.000000" stroke="none" 
	d="
M508.141357,660.856750 
	C508.113525,661.746948 507.865753,662.339172 507.617981,662.931335 
	C506.493683,661.730164 505.369354,660.529053 503.826935,658.881226 
	C503.218018,660.466614 502.769989,661.633118 502.321960,662.799683 
	C502.064728,662.785217 501.807526,662.770813 501.550293,662.756348 
	C501.550293,658.160278 501.550293,653.564209 501.550293,648.968140 
	C501.830963,648.916199 502.111633,648.864258 502.392303,648.812317 
	C502.586823,649.901489 502.857666,650.984009 502.954407,652.081787 
	C503.051727,653.186218 502.975861,654.305969 502.975861,655.975281 
	C504.975983,654.590210 506.477295,653.550537 507.978638,652.510864 
	C506.973328,655.429138 504.170746,657.849548 508.141357,660.856750 
z"/>
<path fill="#22331D" opacity="1.000000" stroke="none" 
	d="
M580.905090,652.818481 
	C586.656311,653.113586 587.549622,655.126404 584.849609,662.905701 
	C584.631348,661.037109 584.575134,659.128601 584.128052,657.316528 
	C583.896851,656.379456 582.972107,655.613586 582.360779,654.770325 
	C581.564148,655.629578 580.337341,656.372437 580.066345,657.373840 
	C579.597351,659.106995 579.720886,661.000549 579.595947,662.826782 
	C579.067261,662.807312 578.538574,662.787842 578.009888,662.768372 
	C578.009888,659.771362 577.927795,656.769043 578.119812,653.784424 
	C578.142395,653.434204 579.674011,653.180969 580.905090,652.818481 
z"/>
<path fill="#22331D" opacity="1.000000" stroke="none" 
	d="
M575.159058,656.586121 
	C575.467163,660.590393 574.421448,663.337463 570.150574,663.011963 
	C566.495422,662.733398 565.439453,659.961853 566.129578,656.961426 
	C566.492676,655.383179 568.523438,652.888428 569.494568,653.022766 
	C571.472412,653.296509 573.242432,655.071777 575.159058,656.586121 
M568.023804,657.506409 
	C568.845581,658.698608 569.667358,659.890747 570.489136,661.082947 
	C571.323914,660.446350 572.770752,659.884155 572.859131,659.156738 
	C573.016479,657.862000 572.351807,656.467224 572.030884,655.114319 
	C570.727661,655.631958 569.424500,656.149597 568.023804,657.506409 
z"/>
<path fill="#22331D" opacity="1.000000" stroke="none" 
	d="
M489.619080,659.448120 
	C490.628265,656.994507 491.359283,654.452393 493.037750,653.022644 
	C493.857330,652.324463 496.442047,653.698364 497.863037,655.131897 
	C495.928955,655.388062 493.897125,655.394897 492.133636,656.086182 
	C491.723785,656.246826 491.758087,659.634216 492.406982,659.974304 
	C493.839111,660.724854 495.792694,660.480591 497.418427,660.631531 
	C495.457581,664.355957 492.748291,664.195618 489.619080,659.448120 
z"/>
<path fill="#22331D" opacity="1.000000" stroke="none" 
	d="
M549.538696,664.845703 
	C550.348511,660.676086 550.936340,656.793091 551.524170,652.910034 
	C551.856628,652.903992 552.189087,652.897949 552.521545,652.891968 
	C552.521545,656.768372 552.582764,660.647949 552.383911,664.514099 
	C552.370667,664.772095 550.385010,664.928589 549.538696,664.845703 
z"/>
<path fill="#263323" opacity="1.000000" stroke="none" 
	d="
M73.785110,658.356689 
	C71.716118,658.667236 69.955421,658.790100 68.194733,658.912964 
	C68.166351,659.427917 68.137970,659.942810 68.109589,660.457764 
	C69.953430,660.554260 71.797264,660.650757 73.641098,660.747192 
	C73.757683,661.126526 73.874275,661.505798 73.990860,661.885132 
	C71.993896,662.160095 69.194260,663.363037 68.188004,662.492676 
	C66.676239,661.184998 65.673141,658.343140 65.894745,656.310669 
	C66.042305,654.957275 68.647781,652.959290 70.244316,652.869446 
	C73.422119,652.690552 74.769325,654.958862 73.785110,658.356689 
z"/>
<path fill="#3E5739" opacity="1.000000" stroke="none" 
	d="
M51.742668,658.993469 
	C51.554981,660.600830 51.368011,661.791687 51.097309,663.515930 
	C46.367451,656.510376 47.773262,649.505127 53.596569,648.867737 
	C52.975025,652.124146 52.359203,655.350586 51.742668,658.993469 
z"/>
<path fill="#232D20" opacity="1.000000" stroke="none" 
	d="
M60.949760,655.051270 
	C60.949749,652.754883 60.949749,650.923584 60.949749,649.092346 
	C61.428150,649.107605 61.906548,649.122925 62.384949,649.138184 
	C62.384949,653.677368 62.384949,658.216492 62.384949,662.755676 
	C61.906555,662.786743 61.428162,662.817749 60.949768,662.848755 
	C60.949768,660.404663 60.949768,657.960571 60.949760,655.051270 
z"/>
<path fill="#8EF278" opacity="1.000000" stroke="none" 
	d="
M943.000000,1176.000000 
	C943.000000,793.869751 943.035095,412.239441 942.842773,30.609276 
	C942.836548,18.266523 950.302856,12.878981 960.473877,12.888991 
	C1121.791748,13.047771 1283.109619,13.050795 1444.427490,12.885312 
	C1454.928223,12.874541 1462.160767,18.516994 1462.155396,30.510344 
	C1461.969116,448.137085 1461.968018,865.763916 1462.156982,1283.390625 
	C1462.162598,1295.735596 1454.698120,1301.121338 1444.526367,1301.111450 
	C1283.208496,1300.953125 1121.890503,1300.949829 960.572693,1301.115234 
	C950.070801,1301.125977 942.669739,1295.492432 942.829712,1283.487427 
	C943.304810,1247.830566 943.000000,1212.163208 943.000000,1176.000000 
M1253.027344,656.560425 
	C1255.678589,656.792419 1256.418823,655.487549 1254.249634,654.078003 
	C1252.698364,653.070068 1250.193726,653.034668 1248.240112,653.348206 
	C1247.260620,653.505432 1245.635742,655.852295 1245.915771,656.439697 
	C1246.647461,657.974182 1248.267822,659.084961 1249.108398,660.857178 
	C1248.967163,661.021851 1248.826050,661.186523 1248.065796,661.393616 
	C1245.602783,661.302368 1244.498169,662.485901 1246.853027,663.923523 
	C1248.571777,664.972839 1251.231812,664.949951 1253.363647,664.645325 
	C1254.360840,664.502869 1256.044067,661.912903 1255.794922,661.552551 
	C1254.712646,659.986389 1253.033569,658.832764 1251.981201,657.040039 
	C1252.118896,656.877869 1252.256592,656.715637 1253.027344,656.560425 
M1128.813232,650.960449 
	C1128.815552,655.127075 1128.873047,659.294556 1128.802734,663.459961 
	C1128.746582,666.791809 1130.316284,668.419434 1133.606201,668.426575 
	C1140.272705,668.440979 1146.940796,668.532166 1153.604858,668.406616 
	C1157.391113,668.335327 1162.624756,657.698242 1160.464722,654.608948 
	C1160.030762,653.988403 1159.139648,653.281250 1158.470825,653.292603 
	C1149.655151,653.442688 1140.739136,651.805420 1132.220337,654.344727 
	C1132.220337,652.069458 1132.220337,649.502502 1132.220337,645.654785 
	C1136.777222,646.860474 1140.600708,648.137878 1144.527222,648.837646 
	C1148.607544,649.564758 1152.787476,649.733276 1156.923828,650.146057 
	C1156.370605,648.286194 1155.513184,647.056152 1154.463623,646.861633 
	C1148.056763,645.674194 1141.620850,644.617859 1135.165771,643.725952 
	C1130.451050,643.074524 1128.276367,645.312012 1128.813232,650.960449 
M1213.102661,658.472229 
	C1213.098633,655.812683 1213.204468,653.145325 1213.014038,650.499146 
	C1212.965698,649.827942 1211.974487,649.224609 1211.416382,648.590210 
	C1210.882202,649.088623 1210.122437,649.493652 1209.868042,650.107910 
	C1209.509399,650.974060 1209.525024,651.995178 1209.385620,652.916443 
	C1203.087402,653.039795 1200.896118,654.955872 1201.376587,659.746704 
	C1201.867920,664.645691 1204.071411,665.533447 1213.102539,664.314331 
	C1213.102539,662.714539 1213.102539,661.073730 1213.102661,658.472229 
M1182.180664,663.222839 
	C1185.064819,665.887573 1188.563232,666.329346 1190.854858,663.325684 
	C1192.225342,661.529541 1192.661255,657.540833 1191.552734,655.761597 
	C1190.506226,654.081726 1186.670654,652.978271 1184.450928,653.450256 
	C1180.692261,654.249329 1180.580078,657.866455 1181.148560,661.186340 
	C1181.229980,661.662109 1181.507935,662.104309 1182.180664,663.222839 
M1219.079468,653.171875 
	C1215.645874,654.817322 1214.410156,657.813538 1215.896484,660.980225 
	C1216.750000,662.798706 1219.241333,664.440369 1221.283813,664.911926 
	C1222.777588,665.256714 1224.741455,663.565186 1226.495728,662.781311 
	C1226.291260,662.308044 1226.086792,661.834839 1225.882324,661.361572 
	C1223.683228,661.361572 1221.484009,661.361572 1219.284912,661.361572 
	C1219.297119,660.978943 1219.309448,660.596375 1219.321777,660.213745 
	C1221.740601,660.058411 1224.159424,659.903076 1226.596069,659.746582 
	C1225.896118,653.897583 1225.275269,653.307800 1219.079468,653.171875 
M1178.665039,653.052063 
	C1178.885864,651.728333 1179.106812,650.404602 1179.454712,648.319336 
	C1177.799438,648.779968 1175.671631,648.719727 1174.723022,649.747742 
	C1170.293335,654.548462 1175.304565,659.760437 1173.708374,664.786133 
	C1174.402222,664.971741 1175.096069,665.157349 1175.789917,665.342957 
	C1176.963989,661.351257 1178.138062,657.359497 1178.665039,653.052063 
M1270.513794,658.577209 
	C1271.550049,652.311890 1275.772827,659.456726 1277.816772,656.693848 
	C1277.019531,652.951355 1273.976440,652.032104 1271.180420,653.261780 
	C1269.290894,654.092834 1267.237183,656.977905 1267.220703,658.960449 
	C1267.204224,660.953003 1269.195923,663.893555 1271.070068,664.750183 
	C1273.816040,666.005310 1276.914673,665.179199 1277.819092,661.455017 
	C1275.800049,658.726807 1271.459839,665.625488 1270.513794,658.577209 
M1242.646240,657.367310 
	C1243.188843,654.523865 1243.731445,651.680359 1244.273926,648.836914 
	C1243.535889,648.631165 1242.797852,648.425415 1242.059814,648.219666 
	C1239.035767,654.537292 1238.640747,661.691528 1237.538330,668.850342 
	C1238.989258,668.299622 1240.231445,667.461609 1240.579590,666.344849 
	C1241.409180,663.684082 1241.816406,660.891663 1242.646240,657.367310 
M1199.009521,661.243774 
	C1199.007324,657.769348 1199.116821,654.288574 1198.920288,650.825195 
	C1198.874390,650.015320 1197.792114,649.264221 1197.186401,648.486084 
	C1196.570312,649.269775 1195.459229,650.030823 1195.422241,650.841064 
	C1195.240845,654.803284 1195.244629,658.783508 1195.436035,662.745178 
	C1195.473755,663.525452 1196.625610,664.251953 1197.263550,665.003235 
	C1197.844971,664.059631 1198.426392,663.115967 1199.009521,661.243774 
M1260.698364,653.007019 
	C1259.877563,653.748291 1258.459839,654.410339 1258.348877,655.245972 
	C1258.026855,657.669373 1258.081909,660.176025 1258.307373,662.620667 
	C1258.384766,663.459534 1259.403442,664.211548 1259.992065,665.003235 
	C1260.643188,664.123230 1261.849731,663.240906 1261.846191,662.363586 
	C1261.833130,659.152222 1261.715088,656.126282 1265.812134,655.228821 
	C1265.993530,655.189148 1265.933960,654.048462 1266.010132,653.140259 
	C1264.421753,653.140259 1263.007568,653.140259 1260.698364,653.007019 
M1232.585083,653.137207 
	C1231.462891,654.029724 1229.702881,654.730591 1229.363770,655.858459 
	C1228.819824,657.668335 1228.998413,659.794556 1229.296875,661.721191 
	C1229.476440,662.880249 1230.461548,663.914429 1231.084595,665.004761 
	C1231.705811,663.928711 1232.467407,662.907715 1232.916138,661.764038 
	C1233.635864,659.930542 1234.012451,657.955933 1234.804565,656.160217 
	C1235.212158,655.236328 1236.204346,654.570312 1236.932495,653.787781 
	C1235.770264,653.652710 1234.608154,653.517578 1232.585083,653.137207 
z"/>
<path fill="#E46C68" opacity="1.000000" stroke="none" 
	d="
M1474.000000,976.000000 
	C1474.000000,660.530762 1474.040771,345.561432 1473.845459,30.592302 
	C1473.838013,18.509426 1480.949097,12.877915 1491.487061,12.892538 
	C1613.474976,13.061810 1735.463257,13.064393 1857.451172,12.889940 
	C1868.194336,12.874576 1875.157837,18.666960 1875.152710,30.530504 
	C1874.969971,448.156372 1874.969360,865.782288 1875.153564,1283.408081 
	C1875.158936,1295.486938 1868.056641,1301.122437 1857.512573,1301.107788 
	C1735.524780,1300.938965 1613.536377,1300.936401 1491.548584,1301.110474 
	C1480.794434,1301.125854 1473.807373,1295.325562 1473.839600,1283.469116 
	C1474.118286,1181.146729 1474.000000,1078.823242 1474.000000,976.000000 
M1634.199585,647.027832 
	C1630.918213,646.661987 1627.616699,646.422180 1624.360840,645.897644 
	C1620.538452,645.281677 1616.783691,644.180603 1612.947876,643.732849 
	C1609.508911,643.331421 1607.711548,645.177673 1607.770020,648.782043 
	C1607.848145,653.609436 1607.846802,658.439941 1607.769897,663.267395 
	C1607.713257,666.823853 1609.388428,668.492920 1612.893921,668.483398 
	C1617.389526,668.471191 1621.885132,668.491394 1626.380737,668.492126 
	C1637.159790,668.493958 1637.096436,668.477051 1639.631226,658.185364 
	C1640.507446,654.627747 1639.199585,653.103638 1635.734375,653.089233 
	C1630.073242,653.065674 1624.405762,652.923706 1618.753540,653.148376 
	C1616.154419,653.251648 1613.585205,654.105164 1611.215332,654.576172 
	C1611.215332,652.487183 1611.215332,649.752014 1611.215332,646.089233 
	C1619.697754,647.638916 1627.634399,649.088928 1636.476685,650.704346 
	C1635.649048,649.029541 1635.256348,648.234985 1634.199585,647.027832 
M1662.365845,650.823914 
	C1660.678223,650.293701 1659.016235,649.652771 1657.297852,649.255310 
	C1653.190918,648.305359 1651.052002,649.490784 1651.545410,654.222656 
	C1651.900635,657.629150 1651.614502,661.102478 1651.614502,664.920837 
	C1654.643799,664.920837 1657.384155,665.425110 1659.791382,664.746948 
	C1661.448730,664.279968 1663.672852,662.282593 1663.831055,660.778625 
	C1664.153687,657.710999 1663.252319,654.514709 1662.365845,650.823914 
M1731.293945,659.414368 
	C1732.842651,665.062927 1732.842651,665.062927 1743.086670,664.511902 
	C1743.086670,659.955200 1743.149536,655.350830 1743.023071,650.751709 
	C1743.002563,650.006958 1742.141235,649.285339 1741.668579,648.552917 
	C1741.027710,649.131470 1740.192261,649.602844 1739.798706,650.317566 
	C1739.371216,651.093445 1739.354736,652.095703 1739.120972,653.174744 
	C1734.362915,652.275818 1731.749268,654.038147 1731.293945,659.414368 
M1692.306030,653.750732 
	C1692.306274,656.081238 1692.134033,658.429443 1692.369873,660.735840 
	C1692.517700,662.180542 1693.278931,663.562561 1693.765015,664.972656 
	C1694.815308,663.921997 1695.865601,662.871399 1696.823975,661.912720 
	C1698.437988,662.971741 1700.400269,664.259277 1702.362549,665.546814 
	C1702.788086,665.230042 1703.213623,664.913330 1703.639160,664.596558 
	C1700.958252,660.961609 1697.821533,657.336609 1703.471680,653.520264 
	C1703.077271,653.220581 1702.682983,652.920837 1702.288696,652.621155 
	C1700.341919,653.592346 1698.395142,654.563538 1696.833374,655.342651 
	C1695.957153,653.094238 1695.053833,650.776306 1694.150635,648.458374 
	C1693.536011,649.922302 1692.921387,651.386230 1692.306030,653.750732 
M1668.357056,664.794434 
	C1671.093384,664.794434 1673.829712,664.794434 1677.115845,664.794434 
	C1675.955200,660.584412 1679.794556,655.302368 1673.543823,653.129089 
	C1671.058960,652.265076 1668.167847,652.664062 1666.647583,656.682373 
	C1669.258057,656.418823 1671.026123,656.240356 1674.114258,655.928589 
	C1670.708740,658.896240 1663.171021,657.611328 1668.357056,664.794434 
M1706.088379,654.441956 
	C1705.500244,655.790405 1704.101807,657.461243 1704.484741,658.423340 
	C1705.420654,660.775391 1706.721313,663.643799 1708.728271,664.734619 
	C1711.047729,665.995239 1714.177490,665.364624 1715.515747,661.430420 
	C1712.826172,661.430420 1710.584961,661.430420 1708.343750,661.430420 
	C1708.349121,661.044495 1708.354492,660.658569 1708.359863,660.272583 
	C1710.740479,660.080811 1713.121094,659.889099 1715.499390,659.697510 
	C1715.008057,653.285706 1712.752563,651.878052 1706.088379,654.441956 
M1724.192139,653.001953 
	C1722.431274,653.090271 1720.670288,653.178528 1718.238525,653.300476 
	C1718.238525,655.154297 1717.994629,656.969299 1718.300537,658.686401 
	C1718.681030,660.822327 1719.515503,662.877380 1720.153931,664.967346 
	C1720.747437,663.007385 1721.343262,661.048035 1721.929443,659.085938 
	C1721.975708,658.930908 1721.892334,658.711304 1721.974243,658.597107 
	C1722.575684,657.758362 1723.204102,656.938965 1723.823975,656.113403 
	C1724.508057,656.900574 1725.626831,657.607971 1725.789062,658.490967 
	C1726.168335,660.557800 1726.088867,662.708801 1726.195190,664.825745 
	C1726.759521,664.992310 1727.323730,665.158875 1727.888062,665.325439 
	C1728.414185,663.970764 1729.430786,662.593750 1729.370117,661.265869 
	C1729.218140,657.937439 1730.874023,653.422424 1724.192139,653.001953 
M1683.832886,661.577698 
	C1682.368530,656.463867 1682.368530,656.463867 1690.322144,657.126892 
	C1689.792236,653.381348 1687.365723,652.678223 1684.281738,652.984131 
	C1680.790649,653.330505 1679.409424,655.754883 1679.341797,658.817017 
	C1679.274902,661.835938 1680.417725,664.487793 1683.888062,664.973083 
	C1686.798706,665.380066 1689.535889,665.115479 1690.264282,660.654358 
	C1688.024414,661.175781 1686.260254,661.586426 1683.832886,661.577698 
z"/>
<path fill="#6BE248" opacity="1.000000" stroke="none" 
	d="
M523.978699,657.909668 
	C524.979126,656.504883 526.005188,655.480225 527.031311,654.455566 
	C527.724792,655.283752 528.943176,656.088562 528.981384,656.945984 
	C529.031311,658.064331 528.145935,659.224365 527.663025,660.366455 
	C526.443481,659.674255 525.223938,658.982056 523.978699,657.909668 
z"/>
<path fill="#75F94E" opacity="1.000000" stroke="none" 
	d="
M525.354858,663.997070 
	C526.175903,663.137451 527.285889,662.564941 528.395874,661.992493 
	C528.589111,662.459778 528.782349,662.927063 528.975586,663.394348 
	C527.864929,663.690979 526.754333,663.987671 525.354858,663.997070 
z"/>
<path fill="#6BE248" opacity="1.000000" stroke="none" 
	d="
M472.039459,661.115479 
	C468.619873,659.929077 468.687042,657.695312 470.255280,655.581177 
	C470.708160,654.970703 473.333405,654.949890 473.797913,655.554260 
	C475.432220,657.680298 475.325043,659.867859 472.039459,661.115479 
z"/>
<path fill="#75F94E" opacity="1.000000" stroke="none" 
	d="
M560.207520,654.758667 
	C560.716736,655.508850 560.824585,656.106873 560.932373,656.704895 
	C560.104004,656.454163 559.275696,656.203430 558.447327,655.952698 
	C558.900269,655.503967 559.353149,655.055298 560.207520,654.758667 
z"/>
<path fill="#75F94E" opacity="1.000000" stroke="none" 
	d="
M568.072510,657.086792 
	C569.424500,656.149597 570.727661,655.631958 572.030884,655.114319 
	C572.351807,656.467224 573.016479,657.862000 572.859131,659.156738 
	C572.770752,659.884155 571.323914,660.446350 570.489136,661.082947 
	C569.667358,659.890747 568.845581,658.698608 568.072510,657.086792 
z"/>
<path fill="#0A1108" opacity="1.000000" stroke="none" 
	d="
M1128.813721,650.522400 
	C1128.276367,645.312012 1130.451050,643.074524 1135.165771,643.725952 
	C1141.620850,644.617859 1148.056763,645.674194 1154.463623,646.861633 
	C1155.513184,647.056152 1156.370605,648.286194 1156.923828,650.146057 
	C1152.787476,649.733276 1148.607544,649.564758 1144.527222,648.837646 
	C1140.600708,648.137878 1136.777222,646.860474 1132.220337,645.654785 
	C1132.220337,649.502502 1132.220337,652.069458 1132.220337,654.344727 
	C1140.739136,651.805420 1149.655151,653.442688 1158.470825,653.292603 
	C1159.139648,653.281250 1160.030762,653.988403 1160.464722,654.608948 
	C1162.624756,657.698242 1157.391113,668.335327 1153.604858,668.406616 
	C1146.940796,668.532166 1140.272705,668.440979 1133.606201,668.426575 
	C1130.316284,668.419434 1128.746582,666.791809 1128.802734,663.459961 
	C1128.873047,659.294556 1128.815552,655.127075 1128.813721,650.522400 
M1133.779785,662.261292 
	C1132.858521,664.252502 1132.623291,665.708496 1135.668823,665.647827 
	C1141.291382,665.535767 1146.924927,665.765320 1152.536621,665.494385 
	C1153.731445,665.436707 1155.305786,664.080933 1155.906128,662.912476 
	C1156.930176,660.919678 1157.321045,658.601562 1158.094849,656.031616 
	C1152.177734,656.031616 1146.702759,656.383057 1141.296753,655.922974 
	C1136.786255,655.539124 1134.461182,657.032898 1133.779785,662.261292 
z"/>
<path fill="#1B1F1A" opacity="1.000000" stroke="none" 
	d="
M1213.102539,658.952576 
	C1213.102539,661.073730 1213.102539,662.714539 1213.102539,664.314331 
	C1204.071411,665.533447 1201.867920,664.645691 1201.376587,659.746704 
	C1200.896118,654.955872 1203.087402,653.039795 1209.385620,652.916443 
	C1209.525024,651.995178 1209.509399,650.974060 1209.868042,650.107910 
	C1210.122437,649.493652 1210.882202,649.088623 1211.416382,648.590210 
	C1211.974487,649.224609 1212.965698,649.827942 1213.014038,650.499146 
	C1213.204468,653.145325 1213.098633,655.812683 1213.102539,658.952576 
M1206.582764,661.976746 
	C1209.775513,662.141418 1210.185791,660.090393 1209.449463,657.818787 
	C1209.186890,657.008789 1207.531128,656.650391 1206.511353,656.085815 
	C1206.301147,657.915833 1206.090942,659.745911 1206.582764,661.976746 
z"/>
<path fill="#263323" opacity="1.000000" stroke="none" 
	d="
M1181.937744,662.892456 
	C1181.507935,662.104309 1181.229980,661.662109 1181.148560,661.186340 
	C1180.580078,657.866455 1180.692261,654.249329 1184.450928,653.450256 
	C1186.670654,652.978271 1190.506226,654.081726 1191.552734,655.761597 
	C1192.661255,657.540833 1192.225342,661.529541 1190.854858,663.325684 
	C1188.563232,666.329346 1185.064819,665.887573 1181.937744,662.892456 
z"/>
<path fill="#1F271D" opacity="1.000000" stroke="none" 
	d="
M1219.470459,653.092163 
	C1225.275269,653.307800 1225.896118,653.897583 1226.596069,659.746582 
	C1224.159424,659.903076 1221.740601,660.058411 1219.321777,660.213745 
	C1219.309448,660.596375 1219.297119,660.978943 1219.284912,661.361572 
	C1221.484009,661.361572 1223.683228,661.361572 1225.882324,661.361572 
	C1226.086792,661.834839 1226.291260,662.308044 1226.495728,662.781311 
	C1224.741455,663.565186 1222.777588,665.256714 1221.283813,664.911926 
	C1219.241333,664.440369 1216.750000,662.798706 1215.896484,660.980225 
	C1214.410156,657.813538 1215.645874,654.817322 1219.470459,653.092163 
z"/>
<path fill="#232D20" opacity="1.000000" stroke="none" 
	d="
M1249.533813,660.364746 
	C1248.267822,659.084961 1246.647461,657.974182 1245.915771,656.439697 
	C1245.635742,655.852295 1247.260620,653.505432 1248.240112,653.348206 
	C1250.193726,653.034668 1252.698364,653.070068 1254.249634,654.078003 
	C1256.418823,655.487549 1255.678589,656.792419 1252.456299,656.310547 
	C1251.085449,656.060730 1250.285767,656.060730 1249.486084,656.060730 
	C1249.445435,656.299011 1249.404785,656.537231 1249.364136,656.775513 
	C1250.099854,657.026733 1250.835571,657.277954 1251.571289,657.529175 
	C1253.033569,658.832764 1254.712646,659.986389 1255.794922,661.552551 
	C1256.044067,661.912903 1254.360840,664.502869 1253.363647,664.645325 
	C1251.231812,664.949951 1248.571777,664.972839 1246.853027,663.923523 
	C1244.498169,662.485901 1245.602783,661.302368 1248.632324,661.650146 
	C1250.039551,662.015076 1250.880249,662.123474 1251.720825,662.231873 
	C1251.794922,661.983704 1251.869019,661.735596 1251.943115,661.487488 
	C1251.140015,661.113281 1250.336914,660.739014 1249.533813,660.364746 
z"/>
<path fill="#1F271D" opacity="1.000000" stroke="none" 
	d="
M1178.988525,653.209961 
	C1178.138062,657.359497 1176.963989,661.351257 1175.789917,665.342957 
	C1175.096069,665.157349 1174.402222,664.971741 1173.708374,664.786133 
	C1175.304565,659.760437 1170.293335,654.548462 1174.723022,649.747742 
	C1175.671631,648.719727 1177.799438,648.779968 1179.454712,648.319336 
	C1179.106812,650.404602 1178.885864,651.728333 1178.988525,653.209961 
z"/>
<path fill="#232D20" opacity="1.000000" stroke="none" 
	d="
M1270.513184,659.000000 
	C1271.459839,665.625488 1275.800049,658.726807 1277.819092,661.455017 
	C1276.914673,665.179199 1273.816040,666.005310 1271.070068,664.750183 
	C1269.195923,663.893555 1267.204224,660.953003 1267.220703,658.960449 
	C1267.237183,656.977905 1269.290894,654.092834 1271.180420,653.261780 
	C1273.976440,652.032104 1277.019531,652.951355 1277.816772,656.693848 
	C1275.772827,659.456726 1271.550049,652.311890 1270.513184,659.000000 
z"/>
<path fill="#1F271D" opacity="1.000000" stroke="none" 
	d="
M1242.520264,657.759888 
	C1241.816406,660.891663 1241.409180,663.684082 1240.579590,666.344849 
	C1240.231445,667.461609 1238.989258,668.299622 1237.538330,668.850342 
	C1238.640747,661.691528 1239.035767,654.537292 1242.059814,648.219666 
	C1242.797852,648.425415 1243.535889,648.631165 1244.273926,648.836914 
	C1243.731445,651.680359 1243.188843,654.523865 1242.520264,657.759888 
z"/>
<path fill="#263323" opacity="1.000000" stroke="none" 
	d="
M1199.008545,661.708008 
	C1198.426392,663.115967 1197.844971,664.059631 1197.263550,665.003235 
	C1196.625610,664.251953 1195.473755,663.525452 1195.436035,662.745178 
	C1195.244629,658.783508 1195.240845,654.803284 1195.422241,650.841064 
	C1195.459229,650.030823 1196.570312,649.269775 1197.186523,648.486084 
	C1197.792114,649.264221 1198.874390,650.015320 1198.920288,650.825195 
	C1199.116821,654.288574 1199.007324,657.769348 1199.008545,661.708008 
z"/>
<path fill="#263323" opacity="1.000000" stroke="none" 
	d="
M1261.145874,653.073608 
	C1263.007568,653.140259 1264.421753,653.140259 1266.010132,653.140259 
	C1265.933960,654.048462 1265.993530,655.189148 1265.812134,655.228821 
	C1261.715088,656.126282 1261.833130,659.152222 1261.846191,662.363586 
	C1261.849731,663.240906 1260.643188,664.123230 1259.992065,665.003235 
	C1259.403442,664.211548 1258.384766,663.459534 1258.307373,662.620667 
	C1258.081909,660.176025 1258.026855,657.669373 1258.348877,655.245972 
	C1258.459839,654.410339 1259.877563,653.748291 1261.145874,653.073608 
z"/>
<path fill="#263323" opacity="1.000000" stroke="none" 
	d="
M1233.015503,653.259888 
	C1234.608154,653.517578 1235.770264,653.652710 1236.932495,653.787720 
	C1236.204346,654.570312 1235.212158,655.236328 1234.804565,656.160217 
	C1234.012451,657.955933 1233.635864,659.930542 1232.916138,661.764038 
	C1232.467407,662.907715 1231.705811,663.928711 1231.084717,665.004761 
	C1230.461548,663.914429 1229.476440,662.880249 1229.296875,661.721191 
	C1228.998413,659.794556 1228.819824,657.668335 1229.363770,655.858459 
	C1229.702881,654.730591 1231.462891,654.029724 1233.015503,653.259888 
z"/>
<path fill="#100807" opacity="1.000000" stroke="none" 
	d="
M1634.531616,647.234131 
	C1635.256348,648.234985 1635.649048,649.029541 1636.476685,650.704346 
	C1627.634399,649.088928 1619.697754,647.638916 1611.215332,646.089233 
	C1611.215332,649.752014 1611.215332,652.487183 1611.215332,654.576172 
	C1613.585205,654.105164 1616.154419,653.251648 1618.753540,653.148376 
	C1624.405762,652.923706 1630.073242,653.065674 1635.734375,653.089233 
	C1639.199585,653.103638 1640.507446,654.627747 1639.631226,658.185364 
	C1637.096436,668.477051 1637.159790,668.493958 1626.380737,668.492126 
	C1621.885132,668.491394 1617.389526,668.471191 1612.893921,668.483398 
	C1609.388428,668.492920 1607.713257,666.823853 1607.769897,663.267395 
	C1607.846802,658.439941 1607.848145,653.609436 1607.770020,648.782043 
	C1607.711548,645.177673 1609.508911,643.331421 1612.947876,643.732849 
	C1616.783691,644.180603 1620.538452,645.281677 1624.360840,645.897644 
	C1627.616699,646.422180 1630.918213,646.661987 1634.531616,647.234131 
M1613.450684,659.902466 
	C1612.978027,661.611572 1612.505371,663.320740 1611.863403,665.641785 
	C1617.196045,665.641785 1621.974487,665.641846 1626.752930,665.641785 
	C1635.204834,665.641602 1635.898682,664.959229 1636.326416,656.032593 
	C1629.997314,656.032593 1623.668701,655.867981 1617.362915,656.173035 
	C1616.118164,656.233276 1614.960815,658.101807 1613.450684,659.902466 
z"/>
<path fill="#261C1C" opacity="1.000000" stroke="none" 
	d="
M1662.610474,651.097656 
	C1663.252319,654.514709 1664.153687,657.710999 1663.831055,660.778625 
	C1663.672852,662.282593 1661.448730,664.279968 1659.791382,664.746948 
	C1657.384155,665.425110 1654.643799,664.920837 1651.614502,664.920837 
	C1651.614502,661.102478 1651.900635,657.629150 1651.545410,654.222656 
	C1651.052002,649.490784 1653.190918,648.305359 1657.297852,649.255310 
	C1659.016235,649.652771 1660.678223,650.293701 1662.610474,651.097656 
z"/>
<path fill="#1B1F1A" opacity="1.000000" stroke="none" 
	d="
M1731.293457,659.025513 
	C1731.749268,654.038147 1734.362915,652.275818 1739.120972,653.174744 
	C1739.354736,652.095703 1739.371216,651.093445 1739.798706,650.317566 
	C1740.192261,649.602844 1741.027710,649.131470 1741.668579,648.552979 
	C1742.141235,649.285339 1743.002563,650.006958 1743.023071,650.751709 
	C1743.149536,655.350830 1743.086670,659.955200 1743.086670,664.511902 
	C1732.842651,665.062927 1732.842651,665.062927 1731.293457,659.025513 
M1739.630005,657.871582 
	C1738.479858,657.348389 1737.329590,656.825195 1736.179443,656.302063 
	C1735.785767,657.464539 1735.013306,658.664856 1735.124634,659.776794 
	C1735.205811,660.587341 1736.452271,661.281250 1737.179321,662.027222 
	C1738.050781,660.893799 1738.922241,659.760437 1739.630005,657.871582 
z"/>
<path fill="#2E2020" opacity="1.000000" stroke="none" 
	d="
M1692.306396,653.300415 
	C1692.921387,651.386230 1693.536011,649.922302 1694.150635,648.458374 
	C1695.053833,650.776306 1695.957153,653.094238 1696.833374,655.342651 
	C1698.395142,654.563538 1700.341919,653.592346 1702.288696,652.621155 
	C1702.682983,652.920837 1703.077271,653.220581 1703.471680,653.520264 
	C1697.821533,657.336609 1700.958252,660.961609 1703.639160,664.596558 
	C1703.213623,664.913330 1702.788086,665.230042 1702.362549,665.546814 
	C1700.400269,664.259277 1698.437988,662.971741 1696.823975,661.912720 
	C1695.865601,662.871399 1694.815308,663.921997 1693.765015,664.972656 
	C1693.278931,663.562561 1692.517700,662.180542 1692.369873,660.735840 
	C1692.134033,658.429443 1692.306274,656.081238 1692.306396,653.300415 
z"/>
<path fill="#261C1C" opacity="1.000000" stroke="none" 
	d="
M1668.023560,664.567871 
	C1663.171021,657.611328 1670.708740,658.896240 1674.114258,655.928589 
	C1671.026123,656.240356 1669.258057,656.418823 1666.647583,656.682373 
	C1668.167847,652.664062 1671.058960,652.265076 1673.543823,653.129089 
	C1679.794556,655.302368 1675.955200,660.584412 1677.115845,664.794434 
	C1673.829712,664.794434 1671.093384,664.794434 1668.023560,664.567871 
z"/>
<path fill="#261C1C" opacity="1.000000" stroke="none" 
	d="
M1706.384277,654.188477 
	C1712.752563,651.878052 1715.008057,653.285706 1715.499390,659.697510 
	C1713.121094,659.889099 1710.740479,660.080811 1708.359863,660.272583 
	C1708.354492,660.658569 1708.349121,661.044495 1708.343750,661.430420 
	C1710.584961,661.430420 1712.826172,661.430420 1715.515747,661.430420 
	C1714.177490,665.364624 1711.047729,665.995239 1708.728271,664.734619 
	C1706.721313,663.643799 1705.420654,660.775391 1704.484741,658.423340 
	C1704.101807,657.461243 1705.500244,655.790405 1706.384277,654.188477 
z"/>
<path fill="#261C1C" opacity="1.000000" stroke="none" 
	d="
M1724.634766,652.963745 
	C1730.874023,653.422424 1729.218140,657.937439 1729.370117,661.265869 
	C1729.430786,662.593750 1728.414185,663.970764 1727.888062,665.325439 
	C1727.323730,665.158875 1726.759521,664.992310 1726.195190,664.825745 
	C1726.088867,662.708801 1726.168335,660.557800 1725.789062,658.490967 
	C1725.626831,657.607971 1724.508057,656.900574 1723.823975,656.113403 
	C1723.204102,656.938965 1722.575684,657.758362 1721.974243,658.597107 
	C1721.892334,658.711304 1721.975708,658.930908 1721.929443,659.085938 
	C1721.343262,661.048035 1720.747437,663.007385 1720.154053,664.967346 
	C1719.515503,662.877380 1718.681030,660.822327 1718.300537,658.686401 
	C1717.994629,656.969299 1718.238525,655.154297 1718.238525,653.300476 
	C1720.670288,653.178528 1722.431274,653.090271 1724.634766,652.963745 
z"/>
<path fill="#261C1C" opacity="1.000000" stroke="none" 
	d="
M1684.164551,661.787415 
	C1686.260254,661.586426 1688.024414,661.175781 1690.264282,660.654358 
	C1689.535889,665.115479 1686.798706,665.380066 1683.888062,664.973083 
	C1680.417725,664.487793 1679.274902,661.835938 1679.341797,658.817017 
	C1679.409424,655.754883 1680.790649,653.330505 1684.281738,652.984131 
	C1687.365723,652.678223 1689.792236,653.381348 1690.322144,657.126892 
	C1682.368530,656.463867 1682.368530,656.463867 1684.164551,661.787415 
z"/>
<path fill="#86E471" opacity="1.000000" stroke="none" 
	d="
M1133.878296,661.865845 
	C1134.461182,657.032898 1136.786255,655.539124 1141.296753,655.922974 
	C1146.702759,656.383057 1152.177734,656.031616 1158.094849,656.031616 
	C1157.321045,658.601562 1156.930176,660.919678 1155.906128,662.912476 
	C1155.305786,664.080933 1153.731445,665.436707 1152.536621,665.494385 
	C1146.924927,665.765320 1141.291382,665.535767 1135.668823,665.647827 
	C1132.623291,665.708496 1132.858521,664.252502 1133.878296,661.865845 
z"/>
<path fill="#86E471" opacity="1.000000" stroke="none" 
	d="
M1206.231689,661.776367 
	C1206.090942,659.745911 1206.301147,657.915833 1206.511353,656.085815 
	C1207.531128,656.650391 1209.186890,657.008789 1209.449463,657.818787 
	C1210.185791,660.090393 1209.775513,662.141418 1206.231689,661.776367 
z"/>
<path fill="#8EF278" opacity="1.000000" stroke="none" 
	d="
M1251.776245,657.284607 
	C1250.835571,657.277954 1250.099854,657.026733 1249.364136,656.775513 
	C1249.404785,656.537231 1249.445435,656.299011 1249.486084,656.060730 
	C1250.285767,656.060730 1251.085449,656.060730 1252.139648,656.307129 
	C1252.256592,656.715637 1252.118896,656.877869 1251.776245,657.284607 
z"/>
<path fill="#8EF278" opacity="1.000000" stroke="none" 
	d="
M1249.321045,660.610962 
	C1250.336914,660.739014 1251.140015,661.113281 1251.943115,661.487488 
	C1251.869019,661.735596 1251.794922,661.983704 1251.720825,662.231873 
	C1250.880249,662.123474 1250.039551,662.015076 1248.941895,661.628906 
	C1248.826050,661.186523 1248.967163,661.021851 1249.321045,660.610962 
z"/>
<path fill="#D76662" opacity="1.000000" stroke="none" 
	d="
M1613.606934,659.519470 
	C1614.960815,658.101807 1616.118164,656.233276 1617.362915,656.173035 
	C1623.668701,655.867981 1629.997314,656.032593 1636.326416,656.032593 
	C1635.898682,664.959229 1635.204834,665.641602 1626.752930,665.641785 
	C1621.974487,665.641846 1617.196045,665.641785 1611.863403,665.641785 
	C1612.505371,663.320740 1612.978027,661.611572 1613.606934,659.519470 
z"/>
<path fill="#D76662" opacity="1.000000" stroke="none" 
	d="
M1739.711914,658.249329 
	C1738.922241,659.760437 1738.050781,660.893799 1737.179321,662.027222 
	C1736.452271,661.281250 1735.205811,660.587341 1735.124634,659.776794 
	C1735.013306,658.664856 1735.785767,657.464539 1736.179443,656.302002 
	C1737.329590,656.825195 1738.479858,657.348389 1739.711914,658.249329 
z"/>
</svg>