<?xml version="1.0" encoding="UTF-8" standalone="no"?>
<!DOCTYPE svg PUBLIC "-//W3C//DTD SVG 1.1//EN" "http://www.w3.org/Graphics/SVG/1.1/DTD/svg11.dtd">
<svg width="100%" height="100%" viewBox="0 0 1000 1000" version="1.1" xmlns="http://www.w3.org/2000/svg" xmlns:xlink="http://www.w3.org/1999/xlink" xml:space="preserve" xmlns:serif="http://www.serif.com/" style="fill-rule:evenodd;clip-rule:evenodd;stroke-linejoin:round;stroke-miterlimit:2;">
    <rect id="Builds" x="0" y="0" width="1000" height="1000" style="fill:none;"/>
    <g id="Builds1" serif:id="Builds">
        <path id="hammer" d="M529.666384,341.144854c0,0 -389.178588,403.099393 -466.524736,483.212191c-7.425722,7.691345 -7.489517,19.862644 -0.144827,27.631408c20.644955,21.836935 60.572442,64.069719 82.201174,86.947232c3.819092,4.0396 9.1472,6.307395 14.706113,6.259341c5.558913,-0.048053 10.847021,-2.407619 14.595707,-6.512638c78.842063,-86.336459 452.10339,-495.078441 452.10339,-495.078441l-96.936821,-102.459093Zm128.690772,68.953386l-96.901524,-102.496337c0,0 52.514385,-63.469865 48.876562,-90.000714c-3.637823,-26.530849 -11.309618,-56.647822 -82.397372,-89.762783c-49.157241,-22.893162 -83.261357,-29.943996 -99.631871,-32.115562c-6.530578,-0.832775 -11.644907,-6.023278 -12.381048,-12.565454c-0.013797,-0.055371 -0.020125,-0.111608 -0.026456,-0.167868c-0.865171,-7.686211 4.217584,-14.783394 11.773061,-16.43903c35.531695,-7.42612 134.774557,-24.107999 204.526503,3.852271c86.321636,34.622811 187.925643,169.008048 187.925643,169.008048c0,0 -21.10074,58.633719 8.073227,91.538464c29.155756,32.884205 68.413828,-4.987985 68.413828,-4.987985c-0,0 24.393327,25.261604 40.249461,41.682135c7.433364,7.697951 7.490347,19.88314 0.129305,27.650276c-24.417893,25.764943 -76.557606,80.781023 -101.971949,107.597388c-3.778904,3.987378 -9.031583,6.24481 -14.525152,6.242441c-5.493569,-0.002368 -10.744299,-2.264328 -14.519764,-6.254963c-14.399796,-15.220481 -34.332561,-36.28927 -34.332561,-36.28927c0,0 26.852415,-45.290596 0.353789,-72.425143c-57.040361,-58.377295 -113.633683,15.934087 -113.633683,15.934087Z"/>
    </g>
</svg>
