<?xml version="1.0" encoding="UTF-8" standalone="no"?><!DOCTYPE svg PUBLIC "-//W3C//DTD SVG 1.1//EN" "http://www.w3.org/Graphics/SVG/1.1/DTD/svg11.dtd"><svg width="100%" height="100%" viewBox="0 0 1000 1000" version="1.1" xmlns="http://www.w3.org/2000/svg" xmlns:xlink="http://www.w3.org/1999/xlink" xml:space="preserve" xmlns:serif="http://www.serif.com/" style="fill-rule:evenodd;clip-rule:evenodd;stroke-linecap:round;stroke-linejoin:round;stroke-miterlimit:1.5;"><rect id="Issues" x="0" y="0" width="1000" height="1000" style="fill:none;"/><g id="Issues1" serif:id="Issues"><g id="Container"><g id="Clipboard"><path d="M800,300l0,450c0,82.787 -67.213,150 -150,150l-300,0c-82.787,0 -150,-67.213 -150,-150l0,-450c0,-82.787 67.213,-150 150,-150l300,0c82.787,0 150,67.213 150,150Z" style="fill:none;stroke:#000;stroke-width:83.33px;"/><rect x="400" y="110" width="200" height="80" style="fill:none;stroke:#000;stroke-width:83.33px;"/><path d="M325,366.551c116.667,-0.465 233.333,-0.929 350,-1.394" style="fill:none;stroke:#000;stroke-width:83.33px;"/><path d="M325,533.775c116.667,-0.465 233.333,-0.929 350,-1.394" style="fill:none;stroke:#000;stroke-width:83.33px;"/><path d="M325,701c116.667,-0.465 233.333,-0.929 350,-1.394" style="fill:none;stroke:#000;stroke-width:83.33px;"/></g></g></g></svg>