<?xml version="1.0" encoding="UTF-8" standalone="no"?>
<!DOCTYPE svg PUBLIC "-//W3C//DTD SVG 1.1//EN" "http://www.w3.org/Graphics/SVG/1.1/DTD/svg11.dtd">
<svg width="100%" height="100%" viewBox="0 0 625 417" version="1.1" xmlns="http://www.w3.org/2000/svg" xmlns:xlink="http://www.w3.org/1999/xlink" xml:space="preserve" xmlns:serif="http://www.serif.com/" style="fill-rule:evenodd;clip-rule:evenodd;stroke-linejoin:round;stroke-miterlimit:2;">
    <g id="Page-1" serif:id="Page 1" transform="matrix(4.166667,0,0,4.166667,0,0)">
        <rect x="0" y="0" width="150" height="100" style="fill:none;"/>
        <g transform="matrix(0.24,0,0,0.24,-1.32,-19.219883)">
            <path d="M370,209.5L370,226.5C370,231.191 366.191,235 361.5,235L275.5,235C270.809,235 267,231.191 267,226.5L267,209.5C267,204.809 270.809,201 275.5,201L361.5,201C366.191,201 370,204.809 370,209.5Z" style="fill:rgb(255,126,0);"/>
        </g>
        <g transform="matrix(0.24,0,0,0.24,28.44,-19.219883)">
            <path d="M370,209.5L370,226.5C370,231.191 366.191,235 361.5,235L275.5,235C270.809,235 267,231.191 267,226.5L267,209.5C267,204.809 270.809,201 275.5,201L361.5,201C366.191,201 370,204.809 370,209.5Z" style="fill:rgb(255,220,0);"/>
        </g>
        <g transform="matrix(0.24,0,0,0.24,58.2,-19.219883)">
            <path d="M370,209.5L370,226.5C370,231.191 366.191,235 361.5,235L275.5,235C270.809,235 267,231.191 267,226.5L267,209.5C267,204.809 270.809,201 275.5,201L361.5,201C366.191,201 370,204.809 370,209.5Z" style="fill:rgb(235,235,235);"/>
        </g>
        <g transform="matrix(0.24,0,0,0.24,-31.08,-19.219883)">
            <path d="M370,209.5L370,226.5C370,231.191 366.191,235 361.5,235L275.5,235C270.809,235 267,231.191 267,226.5L267,209.5C267,204.809 270.809,201 275.5,201L361.5,201C366.191,201 370,204.809 370,209.5Z" style="fill:rgb(255,0,0);"/>
        </g>
        <g transform="matrix(0.24,0,0,0.24,-60.84,-19.219883)">
            <path d="M370,209.5L370,226.5C370,231.191 366.191,235 361.5,235L275.5,235C270.809,235 267,231.191 267,226.5L267,209.5C267,204.809 270.809,201 275.5,201L361.5,201C366.191,201 370,204.809 370,209.5Z" style="fill:rgb(163,255,0);"/>
        </g>
        <g transform="matrix(0.24,0,0,0.24,-1.32,-7.980117)">
            <path d="M370,209.5L370,226.5C370,231.191 366.191,235 361.5,235L275.5,235C270.809,235 267,231.191 267,226.5L267,209.5C267,204.809 270.809,201 275.5,201L361.5,201C366.191,201 370,204.809 370,209.5Z" style="fill:rgb(255,0,0);"/>
        </g>
        <g transform="matrix(0.24,0,0,0.24,28.44,-7.980117)">
            <path d="M370,209.5L370,226.5C370,231.191 366.191,235 361.5,235L275.5,235C270.809,235 267,231.191 267,226.5L267,209.5C267,204.809 270.809,201 275.5,201L361.5,201C366.191,201 370,204.809 370,209.5Z" style="fill:rgb(255,0,0);"/>
        </g>
        <g transform="matrix(0.24,0,0,0.24,58.2,-7.980117)">
            <path d="M370,209.5L370,226.5C370,231.191 366.191,235 361.5,235L275.5,235C270.809,235 267,231.191 267,226.5L267,209.5C267,204.809 270.809,201 275.5,201L361.5,201C366.191,201 370,204.809 370,209.5Z" style="fill:rgb(235,235,235);"/>
        </g>
        <g transform="matrix(0.24,0,0,0.24,-31.08,-7.980117)">
            <path d="M370,209.5L370,226.5C370,231.191 366.191,235 361.5,235L275.5,235C270.809,235 267,231.191 267,226.5L267,209.5C267,204.809 270.809,201 275.5,201L361.5,201C366.191,201 370,204.809 370,209.5Z" style="fill:rgb(255,126,0);"/>
        </g>
        <g transform="matrix(0.24,0,0,0.24,-60.84,-7.980117)">
            <path d="M370,209.5L370,226.5C370,231.191 366.191,235 361.5,235L275.5,235C270.809,235 267,231.191 267,226.5L267,209.5C267,204.809 270.809,201 275.5,201L361.5,201C366.191,201 370,204.809 370,209.5Z" style="fill:rgb(163,255,0);"/>
        </g>
        <g transform="matrix(0.24,0,0,0.24,-1.32,-41.779883)">
            <path d="M370,209.5L370,226.5C370,231.191 366.191,235 361.5,235L275.5,235C270.809,235 267,231.191 267,226.5L267,209.5C267,204.809 270.809,201 275.5,201L361.5,201C366.191,201 370,204.809 370,209.5Z" style="fill:rgb(163,255,0);"/>
        </g>
        <g transform="matrix(0.24,0,0,0.24,28.44,-41.779883)">
            <path d="M370,209.5L370,226.5C370,231.191 366.191,235 361.5,235L275.5,235C270.809,235 267,231.191 267,226.5L267,209.5C267,204.809 270.809,201 275.5,201L361.5,201C366.191,201 370,204.809 370,209.5Z" style="fill:rgb(235,235,235);"/>
        </g>
        <g transform="matrix(0.24,0,0,0.24,58.2,-41.779883)">
            <path d="M370,209.5L370,226.5C370,231.191 366.191,235 361.5,235L275.5,235C270.809,235 267,231.191 267,226.5L267,209.5C267,204.809 270.809,201 275.5,201L361.5,201C366.191,201 370,204.809 370,209.5Z" style="fill:rgb(255,220,0);"/>
        </g>
        <g transform="matrix(0.24,0,0,0.24,-31.08,-41.779883)">
            <path d="M370,209.5L370,226.5C370,231.191 366.191,235 361.5,235L275.5,235C270.809,235 267,231.191 267,226.5L267,209.5C267,204.809 270.809,201 275.5,201L361.5,201C366.191,201 370,204.809 370,209.5Z" style="fill:rgb(235,235,235);"/>
        </g>
        <g transform="matrix(0.24,0,0,0.24,-60.84,-41.779883)">
            <path d="M370,209.5L370,226.5C370,231.191 366.191,235 361.5,235L275.5,235C270.809,235 267,231.191 267,226.5L267,209.5C267,204.809 270.809,201 275.5,201L361.5,201C366.191,201 370,204.809 370,209.5Z" style="fill:rgb(235,235,235);"/>
        </g>
        <g transform="matrix(0.24,0,0,0.24,-1.32,-30.540117)">
            <path d="M370,209.5L370,226.5C370,231.191 366.191,235 361.5,235L275.5,235C270.809,235 267,231.191 267,226.5L267,209.5C267,204.809 270.809,201 275.5,201L361.5,201C366.191,201 370,204.809 370,209.5Z" style="fill:rgb(255,0,0);"/>
        </g>
        <g transform="matrix(0.24,0,0,0.24,28.44,-30.540117)">
            <path d="M370,209.5L370,226.5C370,231.191 366.191,235 361.5,235L275.5,235C270.809,235 267,231.191 267,226.5L267,209.5C267,204.809 270.809,201 275.5,201L361.5,201C366.191,201 370,204.809 370,209.5Z" style="fill:rgb(235,235,235);"/>
        </g>
        <g transform="matrix(0.24,0,0,0.24,58.2,-30.540117)">
            <path d="M370,209.5L370,226.5C370,231.191 366.191,235 361.5,235L275.5,235C270.809,235 267,231.191 267,226.5L267,209.5C267,204.809 270.809,201 275.5,201L361.5,201C366.191,201 370,204.809 370,209.5Z" style="fill:rgb(235,235,235);"/>
        </g>
        <g transform="matrix(0.24,0,0,0.24,-31.08,-30.540117)">
            <path d="M370,209.5L370,226.5C370,231.191 366.191,235 361.5,235L275.5,235C270.809,235 267,231.191 267,226.5L267,209.5C267,204.809 270.809,201 275.5,201L361.5,201C366.191,201 370,204.809 370,209.5Z" style="fill:rgb(255,220,0);"/>
        </g>
        <g transform="matrix(0.24,0,0,0.24,-60.84,-30.540117)">
            <path d="M370,209.5L370,226.5C370,231.191 366.191,235 361.5,235L275.5,235C270.809,235 267,231.191 267,226.5L267,209.5C267,204.809 270.809,201 275.5,201L361.5,201C366.191,201 370,204.809 370,209.5Z" style="fill:rgb(235,235,235);"/>
        </g>
        <g transform="matrix(0.24,0,0,0.24,-1.32,3.340117)">
            <path d="M370,209.5L370,226.5C370,231.191 366.191,235 361.5,235L275.5,235C270.809,235 267,231.191 267,226.5L267,209.5C267,204.809 270.809,201 275.5,201L361.5,201C366.191,201 370,204.809 370,209.5Z" style="fill:rgb(255,126,0);"/>
        </g>
        <g transform="matrix(0.24,0,0,0.24,28.44,3.340117)">
            <path d="M370,209.5L370,226.5C370,231.191 366.191,235 361.5,235L275.5,235C270.809,235 267,231.191 267,226.5L267,209.5C267,204.809 270.809,201 275.5,201L361.5,201C366.191,201 370,204.809 370,209.5Z" style="fill:rgb(255,126,0);"/>
        </g>
        <g transform="matrix(0.24,0,0,0.24,58.2,3.340117)">
            <path d="M370,209.5L370,226.5C370,231.191 366.191,235 361.5,235L275.5,235C270.809,235 267,231.191 267,226.5L267,209.5C267,204.809 270.809,201 275.5,201L361.5,201C366.191,201 370,204.809 370,209.5Z" style="fill:rgb(163,255,0);"/>
        </g>
        <g transform="matrix(0.24,0,0,0.24,-31.08,3.340117)">
            <path d="M370,209.5L370,226.5C370,231.191 366.191,235 361.5,235L275.5,235C270.809,235 267,231.191 267,226.5L267,209.5C267,204.809 270.809,201 275.5,201L361.5,201C366.191,201 370,204.809 370,209.5Z" style="fill:rgb(255,0,0);"/>
        </g>
        <g transform="matrix(0.24,0,0,0.24,-60.84,3.340117)">
            <path d="M370,209.5L370,226.5C370,231.191 366.191,235 361.5,235L275.5,235C270.809,235 267,231.191 267,226.5L267,209.5C267,204.809 270.809,201 275.5,201L361.5,201C366.191,201 370,204.809 370,209.5Z" style="fill:rgb(255,0,0);"/>
        </g>
        <g transform="matrix(0.24,0,0,0.24,-1.32,14.579883)">
            <path d="M370,209.5L370,226.5C370,231.191 366.191,235 361.5,235L275.5,235C270.809,235 267,231.191 267,226.5L267,209.5C267,204.809 270.809,201 275.5,201L361.5,201C366.191,201 370,204.809 370,209.5Z" style="fill:rgb(255,0,0);"/>
        </g>
        <g transform="matrix(0.24,0,0,0.24,28.44,14.579883)">
            <path d="M370,209.5L370,226.5C370,231.191 366.191,235 361.5,235L275.5,235C270.809,235 267,231.191 267,226.5L267,209.5C267,204.809 270.809,201 275.5,201L361.5,201C366.191,201 370,204.809 370,209.5Z" style="fill:rgb(255,126,0);"/>
        </g>
        <g transform="matrix(0.24,0,0,0.24,58.2,14.579883)">
            <path d="M370,209.5L370,226.5C370,231.191 366.191,235 361.5,235L275.5,235C270.809,235 267,231.191 267,226.5L267,209.5C267,204.809 270.809,201 275.5,201L361.5,201C366.191,201 370,204.809 370,209.5Z" style="fill:rgb(163,255,0);"/>
        </g>
        <g transform="matrix(0.24,0,0,0.24,-31.08,14.579883)">
            <path d="M370,209.5L370,226.5C370,231.191 366.191,235 361.5,235L275.5,235C270.809,235 267,231.191 267,226.5L267,209.5C267,204.809 270.809,201 275.5,201L361.5,201C366.191,201 370,204.809 370,209.5Z" style="fill:rgb(255,126,0);"/>
        </g>
        <g transform="matrix(0.24,0,0,0.24,-60.84,14.579883)">
            <path d="M370,209.5L370,226.5C370,231.191 366.191,235 361.5,235L275.5,235C270.809,235 267,231.191 267,226.5L267,209.5C267,204.809 270.809,201 275.5,201L361.5,201C366.191,201 370,204.809 370,209.5Z" style="fill:rgb(255,220,0);"/>
        </g>
        <g transform="matrix(0.24,0,0,0.24,-1.56,25.900117)">
            <path d="M370,209.5L370,226.5C370,231.191 366.191,235 361.5,235L275.5,235C270.809,235 267,231.191 267,226.5L267,209.5C267,204.809 270.809,201 275.5,201L361.5,201C366.191,201 370,204.809 370,209.5Z" style="fill:rgb(255,220,0);"/>
        </g>
        <g transform="matrix(0.24,0,0,0.24,28.2,25.900117)">
            <path d="M370,209.5L370,226.5C370,231.191 366.191,235 361.5,235L275.5,235C270.809,235 267,231.191 267,226.5L267,209.5C267,204.809 270.809,201 275.5,201L361.5,201C366.191,201 370,204.809 370,209.5Z" style="fill:rgb(255,0,0);"/>
        </g>
        <g transform="matrix(0.24,0,0,0.24,57.96,25.900117)">
            <path d="M370,209.5L370,226.5C370,231.191 366.191,235 361.5,235L275.5,235C270.809,235 267,231.191 267,226.5L267,209.5C267,204.809 270.809,201 275.5,201L361.5,201C366.191,201 370,204.809 370,209.5Z" style="fill:rgb(29,255,0);"/>
        </g>
        <g transform="matrix(0.24,0,0,0.24,-31.32,25.900117)">
            <path d="M370,209.5L370,226.5C370,231.191 366.191,235 361.5,235L275.5,235C270.809,235 267,231.191 267,226.5L267,209.5C267,204.809 270.809,201 275.5,201L361.5,201C366.191,201 370,204.809 370,209.5Z" style="fill:rgb(255,220,0);"/>
        </g>
        <g transform="matrix(0.24,0,0,0.24,-61.08,25.900117)">
            <path d="M370,209.5L370,226.5C370,231.191 366.191,235 361.5,235L275.5,235C270.809,235 267,231.191 267,226.5L267,209.5C267,204.809 270.809,201 275.5,201L361.5,201C366.191,201 370,204.809 370,209.5Z" style="fill:rgb(235,235,235);"/>
        </g>
        <g transform="matrix(0.24,0,0,0.24,-1.56,37.139883)">
            <path d="M370,209.5L370,226.5C370,231.191 366.191,235 361.5,235L275.5,235C270.809,235 267,231.191 267,226.5L267,209.5C267,204.809 270.809,201 275.5,201L361.5,201C366.191,201 370,204.809 370,209.5Z" style="fill:rgb(255,126,0);"/>
        </g>
        <g transform="matrix(0.24,0,0,0.24,28.2,37.139883)">
            <path d="M370,209.5L370,226.5C370,231.191 366.191,235 361.5,235L275.5,235C270.809,235 267,231.191 267,226.5L267,209.5C267,204.809 270.809,201 275.5,201L361.5,201C366.191,201 370,204.809 370,209.5Z" style="fill:rgb(235,235,235);"/>
        </g>
        <g transform="matrix(0.24,0,0,0.24,57.96,37.139883)">
            <path d="M370,209.5L370,226.5C370,231.191 366.191,235 361.5,235L275.5,235C270.809,235 267,231.191 267,226.5L267,209.5C267,204.809 270.809,201 275.5,201L361.5,201C366.191,201 370,204.809 370,209.5Z" style="fill:rgb(235,235,235);"/>
        </g>
        <g transform="matrix(0.24,0,0,0.24,-31.32,37.139883)">
            <path d="M370,209.5L370,226.5C370,231.191 366.191,235 361.5,235L275.5,235C270.809,235 267,231.191 267,226.5L267,209.5C267,204.809 270.809,201 275.5,201L361.5,201C366.191,201 370,204.809 370,209.5Z" style="fill:rgb(255,220,0);"/>
        </g>
        <g transform="matrix(0.24,0,0,0.24,-61.08,37.139883)">
            <path d="M370,209.5L370,226.5C370,231.191 366.191,235 361.5,235L275.5,235C270.809,235 267,231.191 267,226.5L267,209.5C267,204.809 270.809,201 275.5,201L361.5,201C366.191,201 370,204.809 370,209.5Z" style="fill:rgb(235,235,235);"/>
        </g>
        <g id="Layer-2" serif:id="Layer 2">
            <g transform="matrix(0.24,0,0,0.24,16.301238,7.272426)">
                <g transform="matrix(341.666667,0,0,341.666667,414.557342,257.365867)">
                </g>
                <text x="74.599px" y="257.366px" style="font-family:'PTSans-Bold', 'PT Sans', sans-serif;font-weight:700;font-size:341.667px;fill:rgb(35,31,32);stroke:white;stroke-width:3.54px;">{ }</text>
            </g>
        </g>
    </g>
</svg>
